<svg width="97" height="71" viewBox="0 0 97 71" fill="none" xmlns="http://www.w3.org/2000/svg">
<path d="M30.9106 59.2478H32.2263C33.2683 59.2478 34.02 59.9096 34.02 61.144C34.02 62.4447 33.3409 63.2272 32.1656 63.2272H30.9106V59.2478ZM31.4667 62.7768H32.1474C33.0167 62.7768 33.4442 62.1742 33.4442 61.159C33.4442 60.2322 32.9441 59.7037 32.1522 59.7037H31.4659V62.7768H31.4667Z" fill="#141414"/>
<path d="M38.2721 61.3791H36.4934V62.7602H38.4504L38.3778 63.2272H35.95V59.2478H38.3526V59.7171H36.4926V60.9058H38.2713V61.3791H38.2721Z" fill="#141414"/>
<path d="M40.6109 62.0936C40.6851 62.5802 41.0124 62.8271 41.4754 62.8271C41.9384 62.8271 42.2334 62.5921 42.2334 62.1795C42.2334 61.767 42.0236 61.5746 41.3484 61.3679C40.4981 61.1139 40.1803 60.8268 40.1803 60.2549C40.1803 59.6026 40.6788 59.1948 41.4226 59.1948C42.2981 59.1948 42.6696 59.6981 42.713 60.2747H42.1648C42.1056 59.8897 41.8903 59.6381 41.4107 59.6381C40.9651 59.6381 40.7434 59.8542 40.7434 60.2029C40.7434 60.5515 40.9493 60.6966 41.5732 60.8844C42.5608 61.1817 42.8037 61.5635 42.8037 62.1157C42.8037 62.7751 42.351 63.272 41.451 63.272C40.6172 63.272 40.1156 62.8295 40.0596 62.0928H40.6109V62.0936Z" fill="#141414"/>
<path d="M45.2238 59.2478V63.2272H44.6709V59.2478H45.2238Z" fill="#141414"/>
<path d="M50.3385 63.227H49.9149C49.892 63.1102 49.8755 62.9375 49.8668 62.6748C49.6586 63.1189 49.2665 63.2845 48.712 63.2845C47.6724 63.2845 47.1589 62.3987 47.1589 61.2574C47.1589 60.116 47.7671 59.1924 48.8911 59.1924C49.754 59.1924 50.232 59.6593 50.3464 60.3527H49.8013C49.6909 59.9559 49.4401 59.6546 48.8643 59.6546C48.0676 59.6546 47.7316 60.3708 47.7316 61.2598C47.7316 62.0943 48.0518 62.8255 48.8154 62.8255C49.6199 62.8255 49.7895 62.2678 49.7895 61.5753V61.5516H48.7964V61.0681H50.3369V63.227H50.3385Z" fill="#141414"/>
<path d="M52.3669 63.2272V59.2478H53.0934C54.6039 61.9967 54.8145 62.38 54.8839 62.5575H54.8926C54.8555 62.0385 54.8492 61.3956 54.8492 60.7488V59.2478H55.369V63.2272H54.6891C53.0729 60.2417 52.9435 59.979 52.8639 59.8157H52.8583C52.8875 60.3284 52.8836 60.9989 52.8836 61.7127V63.2272H52.3669Z" fill="#141414"/>
<path d="M59.8326 61.3791H58.054V62.7602H60.0109L59.9383 63.2272H57.5105V59.2478H59.9131V59.7171H58.0532V60.9058H59.8319V61.3791H59.8326Z" fill="#141414"/>
<path d="M62.3558 61.4485V63.2272H61.8076V59.2478H63.2566C63.9689 59.2478 64.4705 59.6012 64.4705 60.2835C64.4705 60.8522 64.1392 61.1093 63.8237 61.2134C64.2355 61.3507 64.4058 61.6749 64.4058 62.2081V62.2862C64.4058 62.6514 64.4161 62.9961 64.4611 63.228H63.9176C63.8632 63.067 63.849 62.7176 63.849 62.2877V62.2033C63.849 61.6599 63.6526 61.4493 63.0223 61.4493H62.3566L62.3558 61.4485ZM62.3558 60.9949H63.0657C63.5595 60.9949 63.9097 60.8553 63.9097 60.3197C63.9097 59.9049 63.6281 59.7006 63.1817 59.7006H62.3558V60.9949Z" fill="#141414"/>
<path d="M80.224 38.0211C79.0211 33.3618 75.6436 30.6027 71.4986 28.6134C70.9346 28.3428 70.3612 28.0928 69.7538 27.8159C71.1855 26.2392 72.6589 24.9148 73.7734 23.3357C77.9019 17.4861 75.4874 10.6656 68.7064 8.79308C68.0895 8.6227 67.4522 8.4476 66.818 8.3908H66.8236H66.8157C66.7076 8.38134 66.5995 8.37424 66.4915 8.37187C59.9628 8.25277 45.8603 8.14944 45.8603 8.14944V8.89877L48.3189 9.02419C51.0844 9.3886 51.8668 10.216 52.0285 12.9901C52.064 13.592 52.0601 14.197 52.0601 14.8012C52.0656 22.4483 52.2549 30.1026 51.982 37.7403C51.8716 40.8244 52.9183 42.7908 55.3335 44.3455C56.519 45.1082 57.6698 45.9262 59.1559 46.9366V44.6302C59.1559 34.1656 59.1559 23.7009 59.1559 13.2355C59.1559 12.7827 59.1717 12.3299 59.1598 11.8772C59.1322 10.8747 59.6465 10.4251 60.6135 10.3446C63.6251 10.0953 66.0624 11.0971 67.7377 13.6614C69.2822 16.0253 69.8319 18.6575 69.4865 21.4426C69.3374 22.6447 68.857 25.0442 66.7344 26.5949C65.1064 27.7836 63.3238 27.8506 62.5547 27.8309C63.9146 28.301 69.2759 30.3282 71.9522 35.8314C73.566 39.1506 73.413 42.1771 73.4011 42.9343C73.3152 48.5812 70.4551 51.6905 64.8122 51.6061C62.1722 51.5667 59.794 50.6825 57.5081 49.4693C50.2159 45.6004 45.809 38.9195 41.074 32.7805C42.4299 31.3204 43.7196 29.9874 44.9446 28.5984C47.7242 25.448 49.3712 21.8276 48.7733 17.5611C48.0326 12.2905 44.166 8.72603 38.3457 8.4334C34.0682 8.21885 26.9511 8.15259 21.8587 8.13366V8.1313H21.0076C17.9496 8.12262 15.8088 8.1313 15.8088 8.1313V8.88063L17.0835 8.92244C20.8972 9.35311 21.5614 10.0322 21.5669 13.8491C21.5842 24.8675 21.5827 35.8851 21.533 46.9035C21.5267 48.2949 21.3602 49.7399 20.9327 51.0516C20.7639 51.5698 20.1077 52.4864 19.1177 52.7554C18.7439 52.8571 18.1176 52.8619 16.8658 52.8721H16.2277V53.6214H34.6755V52.8721H32.661C32.2627 52.8335 30.5881 52.6718 29.7449 51.8806C29.2062 51.375 29.0736 50.6959 28.9845 49.788C28.8126 48.0393 28.6761 46.2788 28.6658 44.5229C28.6272 37.6811 28.6438 30.8385 28.6414 23.9967C28.6406 20.1727 28.6666 16.3487 28.628 12.5256C28.6177 11.4812 28.9798 11.0158 30.0383 10.8171C35.1803 9.85082 39.9761 12.5342 41.2444 17.5966C41.8392 19.9692 41.9527 22.6148 41.6033 25.0387C40.8634 30.1712 38.5657 31.9609 33.3172 32.2433C33.2321 32.248 33.15 32.3127 33.2628 32.263C35.0273 34.6278 36.8241 37.0193 38.6012 39.4243C40.9021 42.5384 43.1162 45.7203 45.5006 48.7681C47.5309 51.364 50.0613 53.4124 53.4814 53.7382C57.0798 54.0813 60.7011 54.2674 64.316 54.3369C67.2014 54.3921 70.0015 53.7926 72.6502 52.5534C78.566 49.7841 81.7314 43.8619 80.2232 38.0219L80.224 38.0211Z" fill="#141414"/>
</svg>
