<svg width="47" height="45" viewBox="0 0 47 45" fill="none" xmlns="http://www.w3.org/2000/svg">
<path d="M10.9524 26.4871C11.3387 27.5777 11.8266 28.4746 12.4772 29.2695C13.9002 31.0124 15.7503 32.0316 17.9459 32.4596C20.3347 32.9284 22.7235 32.8775 25.1021 32.48C25.5697 32.3985 26.0474 32.3271 26.5048 32.2048C26.9114 32.0927 27.0232 31.7054 26.7285 31.4302C26.6268 31.3385 26.4134 31.2977 26.2609 31.3181C25.3054 31.4404 24.36 31.6341 23.4045 31.736C21.219 31.9602 19.0539 31.8787 16.9396 31.2162C13.7173 30.2174 11.4911 27.1802 11.4505 23.8067C11.4403 22.8282 11.5826 21.8906 11.8876 20.9631C11.9282 20.8408 11.9892 20.7389 12.0604 20.5758C12.2535 21.1262 12.3958 21.6358 12.5991 22.1148C12.9447 22.9098 13.331 23.6945 13.7071 24.4793C13.7681 24.6118 13.8901 24.7239 14.0019 24.8259C14.1544 24.9583 14.3373 24.9583 14.5 24.8259C14.6728 24.6934 14.7744 24.5303 14.6728 24.2959C14.6321 24.2041 14.5915 24.1124 14.5406 24.0207C13.3412 21.9211 12.7008 19.6382 12.3043 17.2736C12.0502 15.7448 11.9486 14.2059 11.9994 12.6567C12.0706 10.5979 12.406 8.60029 13.1887 6.69439C14.2154 4.17698 16.0756 2.52589 18.5761 1.55766C19.9484 1.02767 21.3715 0.640381 22.8454 0.762684C26.2101 1.02767 28.9343 2.45455 30.7741 5.37963C31.7805 6.98996 32.2887 8.75316 32.4818 10.6285C32.736 13.1051 32.7563 15.5818 32.5327 18.0584C32.3497 20.0866 31.9939 22.0842 31.0791 23.929C30.7538 24.5812 30.3269 25.1826 29.9406 25.8043C29.7881 26.0489 29.6255 26.2731 29.4832 26.5177C29.3612 26.7317 29.4019 26.9254 29.6153 27.0783C29.839 27.2311 30.1032 27.2108 30.2659 26.9967C30.4489 26.7623 30.5912 26.5075 30.7741 26.2731C31.4044 25.4272 31.9228 24.5303 32.309 23.5519C32.3395 23.4907 32.3802 23.4296 32.4514 23.3073C32.9596 25.3966 33.8338 27.2006 35.3789 28.6274C34.5453 28.7701 33.7423 28.8924 32.9393 29.0453C32.5937 29.1167 32.2582 29.2288 31.9228 29.3511C31.5568 29.4734 31.4044 29.7078 31.4857 29.9728C31.5772 30.2683 31.8415 30.3601 32.2379 30.2683C33.0409 30.0747 33.844 29.8607 34.6673 29.7384C36.7715 29.4326 38.8045 29.7384 40.7765 30.4926C42.8908 31.2977 44.6697 32.6125 46.2147 34.2432C46.6417 34.6916 46.5197 35.0789 45.92 35.1911C43.6023 35.6293 41.4982 36.6281 39.4449 37.7187C37.2594 38.8805 35.2061 40.2564 33.1426 41.6222C30.6826 43.2529 28.0194 44.3638 25.0919 44.7511C20.4668 45.3728 16.2789 44.2721 12.589 41.4081C10.6983 39.9405 9.16337 38.1569 8.10621 35.986C6.84575 33.3973 7.11004 30.941 8.90924 28.6988C9.51914 27.9446 10.2307 27.2719 10.9422 26.5075L10.9524 26.4871ZM30.7741 15.5818C30.7843 14.6543 30.6217 13.3395 30.2659 12.0655C29.656 9.82332 28.5988 7.84608 26.7996 6.31729C24.482 4.35025 21.341 4.21775 18.8811 5.97076C17.3157 7.08169 16.2789 8.60028 15.5571 10.3431C14.3272 13.2988 14.1442 16.3462 14.8659 19.4547C15.4148 21.809 16.4618 23.9086 18.322 25.5087C20.1822 27.1088 22.3067 27.6184 24.665 26.8337C26.332 26.2731 27.5722 25.1316 28.548 23.6945C30.1236 21.3708 30.764 18.7616 30.7843 15.5818H30.7741Z" fill="white"/>
<path d="M6.32727 32.5723C6.38826 33.1328 6.41876 33.6628 6.52041 34.1928C6.77453 35.6298 7.43525 36.8936 8.23829 38.0861C9.63089 40.1245 11.3488 41.8164 13.4326 43.1515C13.8189 43.3961 14.2153 43.6203 14.6117 43.8446C14.6727 43.8751 14.7235 43.9261 14.8354 43.9974C12.6702 43.7324 10.6271 43.2942 8.64489 42.5604C6.01216 41.5819 3.60306 40.257 1.50907 38.3613C1.13297 38.025 0.777193 37.6479 0.462079 37.2606C-0.00551011 36.6796 0.0859747 36.2108 0.706038 35.8439C2.53573 34.7533 4.36543 33.6832 6.20529 32.6028C6.23579 32.5825 6.27645 32.5825 6.32727 32.5723Z" fill="white"/>
</svg>
